# xmcd CD database file
#
# Track frame offsets:
#	150
#	19991
#	39019
#	53192
#	75042
#	107141
#	120327
#	135964
#	149999
#
# Disc length: 2177 seconds
#
# Revision: 0
# Processed by: cddbd v1.5.2PL0 Copyright (c) Steve Scherf et al.
# Submitted via: CDex 1.70beta2
#
DISCID=6a087f09
DTITLE=Carmine Ioanna - Carmine Ioanna - SOLO -
DYEAR=2014
DGENRE=Jazz
TTITLE0=Calimero
TTITLE1=Carmini e Saretta
TTITLE2=Jumpy Giamp (feat. Francesco Bearzatti)
TTITLE3=Feels So Good
TTITLE4=Arra'
TTITLE5=Sunset (feat. Luca Aquino)
TTITLE6=Solo ritorno
TTITLE7=A Paris (feat. Luca Aquino)
TTITLE8=Che voira
EXTD=YEAR: 2014
EXTT0=
EXTT1=
EXTT2=
EXTT3=
EXTT4=
EXTT5=
EXTT6=
EXTT7=
EXTT8=
PLAYORDER=
